<mxfile host="app.diagrams.net" modified="2022-01-16T14:32:38.313Z" agent="5.0 (Macintosh; Intel Mac OS X 10_15_7) AppleWebKit/605.1.15 (KHTML, like Gecko) Version/15.2 Safari/605.1.15" etag="UWBK2nNiu6ja3Bflfddn" version="16.2.7" type="github">
  <diagram id="pp3l6Q0Ol6kUqJehos5B" name="Page-1">
    <mxGraphModel dx="1018" dy="718" grid="1" gridSize="10" guides="1" tooltips="1" connect="1" arrows="1" fold="1" page="1" pageScale="1" pageWidth="2339" pageHeight="3300" math="0" shadow="0">
      <root>
        <mxCell id="0" />
        <mxCell id="1" parent="0" />
        <mxCell id="5tg6UDMfDckh28AA2Lbs-19" style="edgeStyle=orthogonalEdgeStyle;rounded=0;orthogonalLoop=1;jettySize=auto;html=1;" edge="1" parent="1" source="5tg6UDMfDckh28AA2Lbs-2" target="5tg6UDMfDckh28AA2Lbs-17">
          <mxGeometry relative="1" as="geometry" />
        </mxCell>
        <mxCell id="5tg6UDMfDckh28AA2Lbs-2" value="ESP8266&lt;br&gt;ESP12F" style="rounded=0;whiteSpace=wrap;html=1;" vertex="1" parent="1">
          <mxGeometry x="410" y="365" width="120" height="60" as="geometry" />
        </mxCell>
        <mxCell id="5tg6UDMfDckh28AA2Lbs-9" style="edgeStyle=orthogonalEdgeStyle;rounded=0;orthogonalLoop=1;jettySize=auto;html=1;exitX=1;exitY=0.5;exitDx=0;exitDy=0;" edge="1" parent="1" source="5tg6UDMfDckh28AA2Lbs-6" target="5tg6UDMfDckh28AA2Lbs-7">
          <mxGeometry relative="1" as="geometry" />
        </mxCell>
        <mxCell id="5tg6UDMfDckh28AA2Lbs-6" value="220V转5V" style="whiteSpace=wrap;html=1;" vertex="1" parent="1">
          <mxGeometry x="70" y="365" width="120" height="60" as="geometry" />
        </mxCell>
        <mxCell id="5tg6UDMfDckh28AA2Lbs-10" style="edgeStyle=orthogonalEdgeStyle;rounded=0;orthogonalLoop=1;jettySize=auto;html=1;" edge="1" parent="1" source="5tg6UDMfDckh28AA2Lbs-7" target="5tg6UDMfDckh28AA2Lbs-2">
          <mxGeometry relative="1" as="geometry" />
        </mxCell>
        <mxCell id="5tg6UDMfDckh28AA2Lbs-7" value="5V转3.3V" style="whiteSpace=wrap;html=1;" vertex="1" parent="1">
          <mxGeometry x="240" y="365" width="120" height="60" as="geometry" />
        </mxCell>
        <mxCell id="5tg6UDMfDckh28AA2Lbs-36" style="edgeStyle=orthogonalEdgeStyle;rounded=0;orthogonalLoop=1;jettySize=auto;html=1;" edge="1" parent="1" source="5tg6UDMfDckh28AA2Lbs-13" target="5tg6UDMfDckh28AA2Lbs-2">
          <mxGeometry relative="1" as="geometry" />
        </mxCell>
        <mxCell id="5tg6UDMfDckh28AA2Lbs-13" value="CH340串口烧录器" style="whiteSpace=wrap;html=1;" vertex="1" parent="1">
          <mxGeometry x="410" y="575" width="120" height="60" as="geometry" />
        </mxCell>
        <mxCell id="5tg6UDMfDckh28AA2Lbs-14" value="" style="swimlane;startSize=0;" vertex="1" parent="1">
          <mxGeometry x="230" y="285" width="560" height="200" as="geometry" />
        </mxCell>
        <mxCell id="5tg6UDMfDckh28AA2Lbs-17" value="GPIO" style="whiteSpace=wrap;html=1;" vertex="1" parent="5tg6UDMfDckh28AA2Lbs-14">
          <mxGeometry x="400" y="80" width="120" height="60" as="geometry" />
        </mxCell>
        <mxCell id="5tg6UDMfDckh28AA2Lbs-15" value="核心功能" style="text;html=1;align=center;verticalAlign=middle;resizable=0;points=[];autosize=1;strokeColor=none;fillColor=none;" vertex="1" parent="5tg6UDMfDckh28AA2Lbs-14">
          <mxGeometry x="10" y="5" width="60" height="20" as="geometry" />
        </mxCell>
        <mxCell id="5tg6UDMfDckh28AA2Lbs-16" value="" style="swimlane;startSize=0;" vertex="1" parent="1">
          <mxGeometry x="50" y="290" width="160" height="190" as="geometry" />
        </mxCell>
        <mxCell id="5tg6UDMfDckh28AA2Lbs-26" value="供电模块" style="text;html=1;align=center;verticalAlign=middle;resizable=0;points=[];autosize=1;strokeColor=none;fillColor=none;" vertex="1" parent="5tg6UDMfDckh28AA2Lbs-16">
          <mxGeometry x="20" y="15" width="60" height="20" as="geometry" />
        </mxCell>
        <mxCell id="5tg6UDMfDckh28AA2Lbs-20" value="传感器" style="rounded=0;whiteSpace=wrap;html=1;" vertex="1" parent="1">
          <mxGeometry x="940" y="280" width="120" height="60" as="geometry" />
        </mxCell>
        <mxCell id="5tg6UDMfDckh28AA2Lbs-24" value="" style="swimlane;startSize=0;" vertex="1" parent="1">
          <mxGeometry x="890" y="210" width="200" height="150" as="geometry" />
        </mxCell>
        <mxCell id="5tg6UDMfDckh28AA2Lbs-27" value="App模块" style="text;html=1;align=center;verticalAlign=middle;resizable=0;points=[];autosize=1;strokeColor=none;fillColor=none;" vertex="1" parent="5tg6UDMfDckh28AA2Lbs-24">
          <mxGeometry x="10" y="10" width="60" height="20" as="geometry" />
        </mxCell>
        <mxCell id="5tg6UDMfDckh28AA2Lbs-28" value="继电器x2" style="rounded=0;whiteSpace=wrap;html=1;" vertex="1" parent="1">
          <mxGeometry x="940" y="460" width="120" height="60" as="geometry" />
        </mxCell>
        <mxCell id="5tg6UDMfDckh28AA2Lbs-29" value="" style="swimlane;startSize=0;" vertex="1" parent="1">
          <mxGeometry x="890" y="390" width="200" height="150" as="geometry" />
        </mxCell>
        <mxCell id="5tg6UDMfDckh28AA2Lbs-30" value="App模块" style="text;html=1;align=center;verticalAlign=middle;resizable=0;points=[];autosize=1;strokeColor=none;fillColor=none;" vertex="1" parent="5tg6UDMfDckh28AA2Lbs-29">
          <mxGeometry x="10" y="10" width="60" height="20" as="geometry" />
        </mxCell>
        <mxCell id="5tg6UDMfDckh28AA2Lbs-31" style="edgeStyle=orthogonalEdgeStyle;rounded=0;orthogonalLoop=1;jettySize=auto;html=1;entryX=0;entryY=0.5;entryDx=0;entryDy=0;" edge="1" parent="1" source="5tg6UDMfDckh28AA2Lbs-17" target="5tg6UDMfDckh28AA2Lbs-20">
          <mxGeometry relative="1" as="geometry" />
        </mxCell>
        <mxCell id="5tg6UDMfDckh28AA2Lbs-32" style="edgeStyle=orthogonalEdgeStyle;rounded=0;orthogonalLoop=1;jettySize=auto;html=1;entryX=0;entryY=0.5;entryDx=0;entryDy=0;" edge="1" parent="1" source="5tg6UDMfDckh28AA2Lbs-17" target="5tg6UDMfDckh28AA2Lbs-28">
          <mxGeometry relative="1" as="geometry" />
        </mxCell>
        <mxCell id="5tg6UDMfDckh28AA2Lbs-35" style="edgeStyle=orthogonalEdgeStyle;rounded=0;orthogonalLoop=1;jettySize=auto;html=1;entryX=0.5;entryY=1;entryDx=0;entryDy=0;" edge="1" parent="1" source="5tg6UDMfDckh28AA2Lbs-34" target="5tg6UDMfDckh28AA2Lbs-13">
          <mxGeometry relative="1" as="geometry" />
        </mxCell>
        <mxCell id="5tg6UDMfDckh28AA2Lbs-34" value="USB-C" style="whiteSpace=wrap;html=1;" vertex="1" parent="1">
          <mxGeometry x="410" y="670" width="120" height="60" as="geometry" />
        </mxCell>
        <mxCell id="5tg6UDMfDckh28AA2Lbs-37" value="" style="swimlane;startSize=0;" vertex="1" parent="1">
          <mxGeometry x="370" y="550" width="200" height="200" as="geometry" />
        </mxCell>
        <mxCell id="5tg6UDMfDckh28AA2Lbs-38" value="调试模块" style="text;html=1;align=center;verticalAlign=middle;resizable=0;points=[];autosize=1;strokeColor=none;fillColor=none;" vertex="1" parent="1">
          <mxGeometry x="370" y="550" width="60" height="20" as="geometry" />
        </mxCell>
      </root>
    </mxGraphModel>
  </diagram>
</mxfile>
